<?xml version="1.0" standalone="no"?>
<!DOCTYPE svg PUBLIC "-//W3C//DTD SVG 20010904//EN"
 "http://www.w3.org/TR/2001/REC-SVG-20010904/DTD/svg10.dtd">
<svg version="1.0" xmlns="http://www.w3.org/2000/svg"
 width="800.000000pt" height="800.000000pt" viewBox="0 0 800.000000 800.000000"
 preserveAspectRatio="xMidYMid meet">
<metadata>
Created by potrace 1.11, written by Peter Selinger 2001-2013
</metadata>
<g transform="translate(0.000000,800.000000) scale(0.100000,-0.100000)"
fill="#000000" stroke="none">
<path d="M863 7373 c-3 -6 -3 -47 -1 -89 l3 -78 110 -3 c351 -11 509 -53 635
-170 112 -103 142 -203 160 -522 13 -240 13 -4575 0 -4826 -12 -217 -36 -352
-75 -419 -66 -112 -214 -210 -366 -240 -93 -19 -275 -36 -386 -36 l-81 0 0
-90 0 -90 1766 0 c1075 0 1832 4 1932 10 1020 63 1752 394 2127 962 107 163
170 316 215 522 19 86 22 132 22 316 0 227 -12 318 -64 480 -34 105 -123 278
-190 372 -82 115 -261 287 -380 367 -233 155 -580 294 -1032 412 -92 24 -166
45 -164 46 1 2 74 24 162 49 666 191 1048 451 1247 849 92 184 122 317 122
545 0 146 -4 192 -23 279 -112 500 -436 902 -913 1130 -225 108 -453 161 -894
208 -143 15 -365 17 -2044 22 -1443 5 -1885 3 -1888 -6z m2728 -363 c554 -27
840 -124 1083 -366 222 -223 326 -511 326 -911 0 -150 -22 -322 -55 -439 -33
-113 -110 -270 -174 -355 -99 -130 -263 -265 -416 -342 -194 -97 -481 -152
-852 -164 l-193 -6 0 1296 0 1297 48 0 c26 -1 131 -5 233 -10z m239 -2980
c286 -26 515 -81 685 -165 132 -66 216 -127 317 -233 203 -213 340 -519 379
-845 7 -58 9 -172 7 -275 -4 -145 -10 -199 -32 -297 -126 -549 -491 -905
-1045 -1016 -138 -28 -366 -35 -459 -15 -194 41 -312 151 -356 333 -20 78 -19
35 -17 1362 l1 1174 203 -7 c111 -3 254 -11 317 -16z"/>
</g>
</svg>
